<!--?xml version="1.0" standalone="no"?-->
              <svg id="sw-js-blob-svg" viewBox="0 0 100 100" xmlns="http://www.w3.org/2000/svg" version="1.1">
                    <defs> 
                        <linearGradient id="sw-gradient" x1="0" x2="1" y1="1" y2="0">
                            <stop id="stop1" stop-color="rgba(0, 0, 0, 1)" offset="0%"></stop>
                            <stop id="stop2" stop-color="rgba(0, 0, 0, 1)" offset="100%"></stop>
                        </linearGradient>
                    </defs>
                <path fill="white" d="M19.3,-22.8C24.2,-18.8,26.9,-12,28.4,-4.9C29.8,2.3,29.9,9.8,26.8,15.7C23.6,21.5,17.2,25.6,9.6,29.9C2,34.2,-6.8,38.6,-15.8,37.8C-24.7,36.9,-33.7,30.8,-35.2,22.9C-36.8,15,-30.8,5.3,-28.2,-4.2C-25.6,-13.6,-26.3,-22.9,-22.1,-27C-18,-31.2,-9,-30.2,-0.9,-29.1C7.2,-28,14.3,-26.8,19.3,-22.8Z" width="100%" height="100%" transform="translate(50 50)" stroke-width="1" style="transition: all 0.3s ease 0s;" stroke="url(#sw-gradient)"></path>
              </svg>